HIERARCHY
ROOT joint_Root
{
	OFFSET 0.0 0.0 0.0
	CHANNELS 6 Xposition Yposition Zposition Zrotation Xrotation Yrotation 
	JOINT Hips
	{
		OFFSET 4.5925 91.4895 -427.239
		CHANNELS 6 Xposition Yposition Zposition Zrotation Xrotation Yrotation 
		JOINT Spine
		{
			OFFSET 15.7357 0.0 0.0
			CHANNELS 6 Xposition Yposition Zposition Zrotation Xrotation Yrotation 
			JOINT Chest
			{
				OFFSET 8.98455 -0.406207 0.0
				CHANNELS 6 Xposition Yposition Zposition Zrotation Xrotation Yrotation 
				JOINT Neck
				{
					OFFSET 16.3773 0.0 0.0
					CHANNELS 6 Xposition Yposition Zposition Zrotation Xrotation Yrotation 
					JOINT Head
					{
						OFFSET 6.45672 0.0 0.0
						CHANNELS 6 Xposition Yposition Zposition Zrotation Xrotation Yrotation 
						End Site
						{
							OFFSET 0.0 0.0 0.0
						}
					}
				}
				JOINT Shoulder_L
				{
					OFFSET 12.9942 -0.242716 4.98039
					CHANNELS 6 Xposition Yposition Zposition Zrotation Xrotation Yrotation 
					JOINT UpperArm_L
					{
						OFFSET 5.34809 0.0 0.0
						CHANNELS 6 Xposition Yposition Zposition Zrotation Xrotation Yrotation 
						JOINT LowerArm_L
						{
							OFFSET 24.3286 1.87007e-05 0.0
							CHANNELS 6 Xposition Yposition Zposition Zrotation Xrotation Yrotation 
							JOINT Hand_L
							{
								OFFSET 22.2916 0.0 0.0
								CHANNELS 6 Xposition Yposition Zposition Zrotation Xrotation Yrotation 
								End Site
								{
									OFFSET 0.0 0.0 0.0
								}
							}
						}
					}
				}
				JOINT Shoulder_R
				{
					OFFSET 12.9945 -0.242716 -4.98039
					CHANNELS 6 Xposition Yposition Zposition Zrotation Xrotation Yrotation 
					JOINT UpperArm_R
					{
						OFFSET -5.34813 0.0 0.0
						CHANNELS 6 Xposition Yposition Zposition Zrotation Xrotation Yrotation 
						JOINT LowerArm_R
						{
							OFFSET -24.3289 0.000322201 0.0
							CHANNELS 6 Xposition Yposition Zposition Zrotation Xrotation Yrotation 
							JOINT Hand_R
							{
								OFFSET -22.2915 -0.000108084 0.0
								CHANNELS 6 Xposition Yposition Zposition Zrotation Xrotation Yrotation 
								End Site
								{
									OFFSET 0.0 0.0 0.0
								}
							}
						}
					}
				}
			}
		}
		JOINT UpperLeg_L
		{
			OFFSET -2.19248 -6.46944 0.0
			CHANNELS 6 Xposition Yposition Zposition Zrotation Xrotation Yrotation 
			JOINT LowerLeg_L
			{
				OFFSET 39.0811 0.0 -1.23785e-05
				CHANNELS 6 Xposition Yposition Zposition Zrotation Xrotation Yrotation 
				JOINT Foot_L
				{
					OFFSET 40.9854 0.0 -1.26872e-05
					CHANNELS 6 Xposition Yposition Zposition Zrotation Xrotation Yrotation 
					JOINT Toes_L
					{
						OFFSET 11.7543 0.0 0.0
						CHANNELS 6 Xposition Yposition Zposition Zrotation Xrotation Yrotation 
						End Site
						{
							OFFSET 0.0 0.0 0.0
						}
					}
				}
			}
		}
		JOINT UpperLeg_R
		{
			OFFSET -2.19251 6.46944 0.0
			CHANNELS 6 Xposition Yposition Zposition Zrotation Xrotation Yrotation 
			JOINT LowerLeg_R
			{
				OFFSET -39.0811 -0.00228153 -0.0401928
				CHANNELS 6 Xposition Yposition Zposition Zrotation Xrotation Yrotation 
				JOINT Foot_R
				{
					OFFSET -40.9854 0.0 0.0
					CHANNELS 6 Xposition Yposition Zposition Zrotation Xrotation Yrotation 
					JOINT Toes_R
					{
						OFFSET -11.7543 0.0 0.0
						CHANNELS 6 Xposition Yposition Zposition Zrotation Xrotation Yrotation 
						End Site
						{
							OFFSET 0.0 0.0 0.0
						}
					}
				}
			}
		}
	}
}
MOTION
Frames:	4
Frame Time:	0.0333333
0.000000 0.000000 0.000000 0.000000 0.000000 -0.000000 -4.547580 91.356800 1.672900 87.928100 0.601839 2.632480 15.735700 0.000005 -0.000001 90.769400 86.826300 -93.502600 8.984550 -0.406207 -0.000000 -1.406140 0.303827 -5.460950 16.377300 -0.000001 -0.000001 6.033650 -5.683150 4.977410 6.456720 -0.000001 -0.000000 2.426800 -3.966040 -1.908280 12.994200 -0.242716 4.980390 -91.835900 4.617040 -68.287900 5.348090 -0.000007 -0.000001 -63.014000 21.041100 -5.268930 24.328600 0.000019 0.000005 7.591560 20.882400 -20.500800 22.291600 -0.000001 0.000005 13.261200 5.120900 4.630360 12.994500 -0.242716 -4.980390 93.425200 -8.606150 -68.200100 -5.348130 -0.000001 -0.000004 -18.313900 -64.306700 -58.955200 -24.328900 0.000322 -0.000009 -5.607310 -5.412190 -46.142400 -22.291500 -0.000108 -0.000004 18.914100 5.547520 -8.589510 -2.192480 -6.469440 -0.000000 -171.527000 -11.967500 -4.622220 39.081100 -0.000007 -0.000012 -0.177786 0.352835 26.742800 40.985400 -0.000006 -0.000013 -2.130480 8.640200 -68.927900 11.754300 -0.000000 0.000003 -0.000080 -0.000853 -16.610400 -2.192510 6.469440 -0.000001 -179.760000 25.765200 177.782000 -39.081100 -0.002282 -0.040193 -0.036582 0.086639 24.724600 -40.985400 0.000008 0.000006 8.879790 14.767100 -71.595200 -11.754300 -0.000006 -0.000006 -0.002527 -0.035133 -18.001800
0.000000 0.000000 0.000000 0.000000 0.000000 -0.000000 -4.401280 91.381700 1.643070 87.945800 0.042479 2.512180 15.735700 0.000005 -0.000001 90.791400 86.797300 -93.422500 8.984550 -0.406207 -0.000000 -1.349050 0.297590 -5.256960 16.377300 -0.000001 -0.000001 5.614650 -5.589510 4.779400 6.456720 -0.000001 -0.000000 2.360850 -3.910380 -1.705700 12.994200 -0.242716 4.980390 -91.856800 4.679220 -68.327300 5.348090 -0.000007 -0.000001 -63.484200 21.580200 -5.389060 24.328600 0.000019 0.000005 7.457160 20.800000 -20.233700 22.291600 -0.000001 0.000005 13.341200 5.122440 4.594530 12.994500 -0.242716 -4.980390 93.056600 -7.885160 -68.732200 -5.348130 -0.000001 -0.000004 -16.579700 -61.964400 -55.147200 -24.328900 0.000322 -0.000009 -6.029960 -5.365810 -48.476800 -22.291500 -0.000108 -0.000004 19.046200 5.543760 -8.415190 -2.192480 -6.469440 -0.000000 -171.680000 -12.245600 -4.585520 39.081100 -0.000007 -0.000012 -0.177467 0.354017 26.624700 40.985400 -0.000006 -0.000013 -2.104200 8.307890 -68.928100 11.754300 -0.000000 0.000003 -0.000091 -0.000948 -16.614000 -2.192510 6.469440 -0.000001 -179.863000 25.537100 177.624000 -39.081100 -0.002282 -0.040193 -0.040176 0.094629 24.682200 -40.985400 0.000008 0.000006 8.752880 15.204700 -71.484100 -11.754300 -0.000006 -0.000006 -0.002366 -0.033204 -17.923300
0.000000 0.000000 0.000000 0.000000 0.000000 -0.000000 -4.227070 91.401800 1.615740 87.960300 -0.601279 2.387350 15.735700 0.000005 -0.000001 90.931000 86.753200 -93.451400 8.984550 -0.406207 -0.000000 -1.261670 0.303921 -5.035720 16.377300 -0.000001 -0.000001 5.132430 -5.463310 4.560060 6.456720 -0.000001 -0.000000 2.240280 -3.890580 -1.522800 12.994200 -0.242716 4.980390 -91.905000 4.795890 -68.305900 5.348090 -0.000007 -0.000001 -63.835800 22.395500 -5.692140 24.328600 0.000019 0.000005 7.269820 20.621000 -19.911100 22.291600 -0.000001 0.000005 13.419600 5.121730 4.610970 12.994500 -0.242716 -4.980390 92.581800 -6.876670 -69.363300 -5.348130 -0.000001 -0.000004 -15.168600 -58.901900 -51.219800 -24.328900 0.000322 -0.000009 -6.287290 -5.032410 -51.468900 -22.291500 -0.000108 -0.000004 19.290100 5.538110 -8.157160 -2.192480 -6.469440 -0.000000 -171.837000 -12.632800 -4.553520 39.081100 -0.000007 -0.000012 -0.177146 0.354684 26.539900 40.985400 -0.000006 -0.000013 -2.047900 8.015410 -68.954600 11.754300 -0.000000 0.000003 -0.000086 -0.000901 -16.612200 -2.192510 6.469440 -0.000001 -179.976000 25.394500 177.430000 -39.081100 -0.002282 -0.040193 -0.043090 0.100908 24.695500 -40.985400 0.000008 0.000006 8.752780 15.705600 -71.431200 -11.754300 -0.000006 -0.000006 -0.002354 -0.033058 -17.917400
0.000000 0.000000 0.000000 0.000000 0.000000 -0.000000 -4.014130 91.423900 1.595270 88.041400 -1.188980 2.333470 15.735700 0.000005 -0.000001 90.651900 86.685900 -93.072100 8.984550 -0.406207 -0.000000 -1.128080 0.263126 -4.835880 16.377300 -0.000001 -0.000001 4.641710 -5.383980 4.275590 6.456720 -0.000001 -0.000000 2.095410 -3.909950 -1.295900 12.994200 -0.242716 4.980390 -91.959600 4.926930 -68.278400 5.348090 -0.000007 -0.000001 -64.149900 23.280800 -6.104710 24.328600 0.000019 0.000005 7.121060 20.560700 -19.581600 22.291600 -0.000001 0.000005 13.311900 5.122470 4.593880 12.994500 -0.242716 -4.980390 92.049200 -5.656030 -70.046900 -5.348130 -0.000001 -0.000004 -14.548000 -55.082400 -47.446100 -24.328900 0.000322 -0.000009 -6.609830 -4.626940 -55.151400 -22.291500 -0.000108 -0.000004 19.681500 5.535810 -8.053440 -2.192480 -6.469440 -0.000000 -172.085000 -12.965000 -4.437030 39.081100 -0.000007 -0.000012 -0.174787 0.351944 26.410700 40.985400 -0.000006 -0.000013 -1.966170 7.703620 -68.967200 11.754300 -0.000000 0.000003 -0.000088 -0.000925 -16.613100 -2.192510 6.469440 -0.000001 179.730000 25.365400 177.345000 -39.081100 -0.002282 -0.040193 -0.051249 0.118631 24.699100 -40.985400 0.000008 0.000006 8.508430 16.364500 -71.319700 -11.754300 -0.000006 -0.000006 -0.002241 -0.031697 -17.862000
